<?xml version="1.0" encoding="UTF-8"?>
<svg id="Camada_2" data-name="Camada 2" xmlns="http://www.w3.org/2000/svg" viewBox="0 0 632.95 635.91">
  <defs>
    <style>
      .cls-1 {
        fill: #e7b028;
      }
    </style>
  </defs>
  <g id="Camada_1-2" data-name="Camada 1">
    <path class="cls-1" d="M622.57,257.92l-54.85-19.27c-4.45-14.82-10.38-29.65-19.27-44.47l25.2-51.88c2.96-5.93,1.48-13.34-2.96-16.31l-63.74-63.74c-4.45-4.45-11.86-5.93-16.31-2.96l-51.88,25.2c-14.82-7.41-29.65-13.34-44.47-19.27l-19.27-54.85c-1.48-5.93-7.41-10.38-13.34-10.38h-90.42c-5.93,0-11.86,4.45-14.82,10.38l-19.27,54.85c-14.82,4.45-29.65,10.38-44.47,19.27l-50.4-26.68c-5.93-2.96-11.86-1.48-17.79,2.96l-63.74,63.74c-4.45,4.45-5.93,11.86-2.96,16.31l25.2,51.88c-7.41,14.82-13.34,29.65-17.79,44.47l-54.85,19.27c-5.93,2.96-10.38,8.89-10.38,14.82v90.42c0,5.93,4.45,11.86,10.38,14.82l54.85,19.27c4.45,14.82,10.38,29.65,19.27,44.47l-25.2,51.88c-2.96,5.93-1.48,13.34,2.96,17.79l63.74,63.74c4.45,4.45,11.86,5.93,17.79,2.96l51.88-25.2c14.82,7.41,29.65,13.34,44.47,19.27l19.27,54.85c1.48,5.93,7.41,10.38,13.34,10.38h90.42c5.93,0,11.86-4.45,13.34-10.38l19.27-54.85c14.82-4.45,29.65-10.38,44.47-19.27l51.88,25.2c5.93,2.96,11.86,1.48,16.31-2.96l63.74-63.74c4.45-4.45,5.93-11.86,2.96-17.79l-26.68-53.36c7.41-14.82,13.34-29.65,19.27-44.47l54.85-19.27c5.93-1.48,10.38-7.41,10.38-14.82v-90.42c0-4.45-4.45-10.38-10.38-11.86ZM465.56,404.14c0,31.24-25.32,56.56-56.56,56.56h-153.71v-28.23c0-1.53.87-2.85,2.13-3.53.57-.31,1.21-.5,1.9-.5h89.33c1.29,3.2,3.04,6.16,5.16,8.8,6.42,7.99,16.27,13.12,27.32,13.12,19.34,0,35.02-15.68,35.02-35.02,0-6.19-1.61-12-4.43-17.04-5.99-10.72-17.44-17.98-30.59-17.98-14.12,0-26.28,8.36-31.82,20.4h-89.99c-10.27,0-19.41,4.91-25.22,12.49-4.09,5.35-6.53,12.02-6.53,19.26v28.23h-3.61c-31.24,0-56.56-25.32-56.56-56.56v-51.07h102.47c5.37,12.44,17.75,21.16,32.16,21.16,19.34,0,35.02-15.68,35.02-35.02s-15.68-35.02-35.02-35.02c-14.42,0-26.79,8.71-32.16,21.16h-30.56v-49.85c0-2.22,1.81-4.03,4.03-4.03h106.64c5.81,11.29,17.57,19.02,31.15,19.02,19.34,0,35.02-15.68,35.02-35.02s-15.68-35.02-35.02-35.02c-15.23,0-28.18,9.72-33,23.29h-104.79c-17.51,0-31.75,14.24-31.75,31.75v49.85h-44.19v-93.57c0-31.24,25.32-56.56,56.56-56.56h185.05c31.24,0,56.56,25.32,56.56,56.56v172.36ZM375.48,403.52c1.71-.82,3.62-1.29,5.64-1.29,7.24,0,13.11,5.87,13.11,13.11,0,0,0,.02,0,.03-.01,7.23-5.88,13.08-13.1,13.08-1.73,0-3.37-.34-4.89-.95-1.33-.53-2.55-1.28-3.62-2.19-2.81-2.4-4.6-5.97-4.6-9.96,0-5.21,3.05-9.7,7.46-11.82ZM302.02,326.1c5.85,0,10.81,3.84,12.49,9.14.4,1.25.62,2.59.62,3.97s-.22,2.72-.62,3.97c-1.68,5.3-6.64,9.14-12.49,9.14-7.24,0-13.11-5.87-13.11-13.11s5.87-13.11,13.11-13.11ZM374.71,266.89c-3.99-2.25-6.7-6.52-6.7-11.42s2.97-9.58,7.28-11.73c1.76-.88,3.73-1.38,5.83-1.38,7.24,0,13.11,5.87,13.11,13.11s-5.87,13.11-13.11,13.11c-2.33,0-4.51-.61-6.41-1.68Z"/>
  </g>
</svg>