<?xml version="1.0" encoding="UTF-8"?>
<svg id="Camada_2" data-name="Camada 2" xmlns="http://www.w3.org/2000/svg" viewBox="0 0 1199.85 1322.22">
  <defs>
    <style>
      .cls-1 {
        fill: #fcc239;
      }
    </style>
  </defs>
  <g id="Camada_2-2" data-name="Camada 2">
    <g id="Camada_1-2" data-name="Camada 1-2">
      <g>
        <path class="cls-1" d="M1198.81,422.78c-5.12-78.8-39.99-129.67-106.27-169.73-130.19-78.7-265.13-149.97-395.6-228.32C664.5,7.18,627.97-1.66,590.93.26l1.98,7.51c72.12,197.63,143.27,395.64,214.99,593.41,63.07,173.93,126.85,347.66,188.99,521.94l2.95-.54c35.64-22.49,75.38-41.17,110.15-64.82,51.09-34.75,86.43-92.02,88.86-154.61h1v-477.94l-1.04-2.42h0Z"/>
        <path class="cls-1" d="M636.91,849.67c-31.73-89.02-62.68-178.32-93.97-267.49-37.14-105.85-71.75-214.68-110.97-319.48-20.06-53.6-44.29-105.72-64.02-159.46L107.32,253.05C46.09,285.36,6.39,347.23,0,416.2.03,578.5-.02,740.84,0,903.14h1c1.49,39.33,19.53,88.9,46.48,118,.73.78,3.45,3.97,4.5,2.99l121.99-364.95c51.73-151.03,102.86-302.35,152.99-453.94l2.09,1.4,60.84,165.99c-23.24,69.88-46.59,139.72-69.94,209.56-56.87,170.12-114.37,340.08-170.86,510.34l359.81,208.09c45.68,22.77,96.68,27.72,146,13.98,42.96-11.97,79.89-41.71,119.32-61.65l2.59-3.28c-7.94-30.43-17.75-60.34-27.91-90.07-35.48-103.87-75.17-206.51-112.02-309.92h.03ZM279.97,948.13l26.09-95.89,259.26-.16,31.61,96.05h-316.96Z"/>
      </g>
    </g>
  </g>
</svg>