<?xml version="1.0" encoding="utf-8"?>
<!-- Generator: Adobe Illustrator 17.0.0, SVG Export Plug-In . SVG Version: 6.00 Build 0)  -->
<!DOCTYPE svg PUBLIC "-//W3C//DTD SVG 1.1//EN" "http://www.w3.org/Graphics/SVG/1.1/DTD/svg11.dtd">
<svg version="1.1" id="Layer_1" xmlns="http://www.w3.org/2000/svg" xmlns:xlink="http://www.w3.org/1999/xlink" x="0px" y="0px"
	 width="1200px" height="1200px" viewBox="0 0 1200 1200" enable-background="new 0 0 1200 1200" xml:space="preserve">
<g>
	<path fill="#00A9D2" d="M651.308,241.68c5.539-3.738,131.166-82.55,256.03-38.083c-101.567-74.03-177.778-88.859-283.559-67.699
		c-105.797,21.153-78.297,103.674-63.475,116.388C575.112,264.993,598.395,277.64,651.308,241.68z"/>
	<path fill="#E5202F" d="M449.822,272.045c1.983-6.39,50.899-146.407,176.176-189.654c-125.555,5.611-194.333,41.63-263.729,124.225
		c-69.409,82.601,3.6,129.873,23.108,130.549C404.899,337.825,430.974,333.162,449.822,272.045z"/>
	<path fill="#E6007E" d="M299.294,375.27c-1.771-6.449-35.96-150.77,46.302-254.679C242.841,192.932,204.28,260.322,190.274,367.286
		c-14.008,106.986,72.986,107.493,89.776,97.564C296.848,454.889,316.313,436.923,299.294,375.27z"/>
	<path fill="#00A9D2" d="M236.966,543.998c-5.024-4.43-112.693-106.436-100.766-238.439
		c-46.361,116.814-41.704,194.326,5.179,291.477c46.868,97.165,119.942,49.953,128.551,32.435
		C278.523,611.954,284.972,586.26,236.966,543.998z"/>
	<path fill="#0073B3" d="M247.116,722.312C240.645,720.6,98.623,677.83,50,554.531c11.046,125.186,50.019,192.349,135.55,258.094
		c85.503,65.76,129.58-9.241,129.41-28.748C314.77,764.346,308.996,738.499,247.116,722.312z"/>
	<path fill="#FCBC00" d="M359.611,872.566c-6.316,2.219-147.876,46.442-257.279-28.394
		c79.347,97.474,149.271,131.224,256.94,137.702c107.677,6.509,102.11-80.316,91.034-96.372
		C439.186,869.445,419.942,851.274,359.611,872.566z"/>
	<path fill="#E5202F" d="M555.324,907.925c-3.643,5.605-88.741,127.091-221.053,134.64
		c122.337,28.742,198.344,12.751,287.554-47.882c89.227-60.611,31.789-125.973,13.221-131.907
		C616.434,856.848,590.081,854.219,555.324,907.925z"/>
	<path fill="#E6007E" d="M729.458,878.127c0.397,6.691,3.878,154.949-98.217,239.482c115.595-49.395,167.304-107.31,203.22-209.03
		c35.946-101.699-49.065-120.304-67.559-114.074C748.422,800.778,725.624,814.263,729.458,878.127z"/>
	<path fill="#00A9D2" d="M869.732,775.592c2.849,6.052,61.154,142.417-2.247,258.82c88.976-88.785,115.476-161.78,111.055-269.552
		c-4.422-107.779-90.255-93.472-105.106-80.831C858.583,696.729,842.453,717.721,869.732,775.592z"/>
	<path fill="#0073B3" d="M928.183,625.68c5.656,3.6,127.861,87.64,136.544,219.916c27.705-122.617,11.061-198.469-50.343-287.159
		c-61.375-88.704-126.245-30.717-132.047-12.097C876.591,565.011,874.198,591.373,928.183,625.68z"/>
	<path fill="#FCBC00" d="M932.488,468.139c6.655,0.838,153.069,24.488,217.512,140.333
		c-27.425-122.683-74.948-184.115-168.39-238.006c-93.427-53.905-127.244,26.281-124.511,45.583
		C859.89,435.381,868.998,460.236,932.488,468.139z"/>
	<path fill="#E5202F" d="M848.079,335.637c6.42-1.895,150.029-38.964,255.531,41.279
		c-74.344-101.361-142.491-138.579-249.727-150.447c-107.208-11.891-106.018,75.116-95.763,91.702
		C768.445,334.763,786.749,353.874,848.079,335.637z"/>
</g>
</svg>
